<?xml version="1.0" encoding="iso-8859-1"?>
<!-- Generator: Adobe Illustrator 16.0.0, SVG Export Plug-In . SVG Version: 6.00 Build 0)  -->
<!DOCTYPE svg PUBLIC "-//W3C//DTD SVG 1.1//EN" "http://www.w3.org/Graphics/SVG/1.1/DTD/svg11.dtd">
<svg version="1.1" id="Capa_1" xmlns="http://www.w3.org/2000/svg" xmlns:xlink="http://www.w3.org/1999/xlink" x="0px" y="0px"
	 width="985.122px" height="985.122px" viewBox="0 0 985.122 985.122" style="enable-background:new 0 0 985.122 985.122;"
	 xml:space="preserve">
<g>
	<g>
		<path d="M552.7,618.961c1.847,10.324,4.424,20.453,7.716,30.324H168.717c-59.961,0-108.743,48.783-108.743,108.744
			s48.782,108.742,108.743,108.742S277.46,817.991,277.46,758.03c0-14.402-2.821-28.154-7.927-40.744h208.07
			c-5.106,12.59-7.927,26.344-7.927,40.744c0,59.961,48.782,108.742,108.743,108.742c51.769,0,95.199-36.365,106.101-84.891
			c25.889,10.605,53.852,16.17,82.67,16.17c58.212,0,112.939-22.67,154.102-63.832c41.162-41.16,63.831-95.889,63.831-154.1
			c0-58.213-22.669-112.94-63.831-154.102c-41.161-41.161-95.89-63.831-154.102-63.831c-10.348,0-20.583,0.73-30.654,2.14
			l45.454-177.977h120.869v-68H729.174l-26.045,101.981L0,219.831l74.753,399.13H552.7z M209.461,758.03
			c0,22.467-18.277,40.744-40.743,40.744s-40.743-18.277-40.743-40.744c0-22.465,18.277-40.742,40.743-40.742
			S209.461,735.565,209.461,758.03z M622.371,618.961c-3.327-12.393-5.112-25.412-5.112-38.84
			c0-65.283,41.945-120.946,100.297-141.477c15.543-5.47,32.245-8.455,49.634-8.455c82.673,0,149.933,67.258,149.933,149.932
			c0,82.672-67.26,149.932-149.933,149.932C697.946,730.053,639.525,682.866,622.371,618.961z M578.419,798.774
			c-22.466,0-40.743-18.277-40.743-40.744c0-22.465,18.277-40.742,40.743-40.742s40.743,18.277,40.743,40.742
			C619.162,780.497,600.885,798.774,578.419,798.774z M685.765,288.321l-26.082,102.125c-16.848,9.584-32.515,21.496-46.593,35.574
			c-34.206,34.206-55.626,77.783-61.894,124.941H131.199L81.928,287.889L685.765,288.321z"/>
		<polygon points="801.19,484.787 733.19,484.787 733.19,546.122 690.106,546.122 671.856,546.122 671.856,614.122 672.74,614.122 
			733.19,614.122 733.19,675.456 801.19,675.456 801.19,614.122 862.524,614.122 862.524,546.122 801.19,546.122 		"/>
	</g>
</g>
<g>
</g>
<g>
</g>
<g>
</g>
<g>
</g>
<g>
</g>
<g>
</g>
<g>
</g>
<g>
</g>
<g>
</g>
<g>
</g>
<g>
</g>
<g>
</g>
<g>
</g>
<g>
</g>
<g>
</g>
</svg>
